<?xml version="1.0" encoding="utf-8"?>
<!-- Generator: Adobe Illustrator 24.0.3, SVG Export Plug-In . SVG Version: 6.00 Build 0)  -->
<svg version="1.1" id="Layer_1" xmlns="http://www.w3.org/2000/svg" xmlns:xlink="http://www.w3.org/1999/xlink" x="0px" y="0px"
	 viewBox="0 0 64 64" style="enable-background:new 0 0 64 64;" xml:space="preserve">
<style type="text/css">
	.st0{fill:#474747;}
	.st1{fill:none;}
</style>
<g>
	<path d="M33.2,1.7c0.6,0.1,1.2,0.1,1.8,0.2c7.4,1.1,13,4.9,16.6,11.4c3.6,6.5,3.8,13.3,0.7,20.1c-3.2,6.9-7.4,13.1-11.9,19.2
		c-2.3,3.1-4.8,6-7.2,9c-0.7,0.9-1.5,0.9-2.3,0c-5.7-6.8-11-13.9-15.6-21.5c-1.6-2.8-3.2-5.6-4.3-8.6c-1.4-3.7-1.7-7.5-1-11.4
		c1.5-7.9,6-13.4,13.3-16.7c2.2-1,4.6-1.5,7-1.7c0.2,0,0.3-0.1,0.5-0.1C31.6,1.7,32.4,1.7,33.2,1.7z M32,35.6
		c6.4,0,11.6-5.3,11.6-11.6c0-6.4-5.2-11.5-11.6-11.6c-6.4,0-11.6,5.2-11.6,11.6C20.4,30.4,25.6,35.6,32,35.6z"/>
</g>
</svg>
