<svg id="b017ac9d-9516-41dd-8462-68452d0c68e1" data-name="Layer 1" xmlns="http://www.w3.org/2000/svg" viewBox="0 0 64 64"><defs><style>.b92b05b9-7919-47d5-b19f-5956a2e1bd09{fill:#474747;}</style></defs><title>h</title><path class="b92b05b9-7919-47d5-b19f-5956a2e1bd09" d="M.644,40.007a7.246,7.246,0,0,1,.927-.848q12.747-8.181,25.515-16.328a1.052,1.052,0,0,0,.558-1.023q-.026-8.129-.009-16.258A4.4,4.4,0,0,1,31.156.979a4.256,4.256,0,0,1,5.061,3.869c.066,1.464.026,2.933.027,4.4,0,4.2.01,8.394-.011,12.591a1,1,0,0,0,.538.972Q49.486,30.925,62.2,39.051a1.955,1.955,0,0,1,1.056,1.935c-.067,1.484-.015,2.973-.019,4.461,0,1.177-.633,1.615-1.748,1.213q-12.2-4.389-24.4-8.781c-.245-.088-.493-.166-.844-.283v.717c0,4.462.011,8.923-.011,13.385A1.9,1.9,0,0,0,37,53.322c1.694,1.372,3.348,2.792,5.037,4.169a1.658,1.658,0,0,1,.7,1.465c-.04.895-.008,1.792-.01,2.689,0,1.277-.552,1.67-1.794,1.3-2.725-.822-5.446-1.663-8.184-2.442a3.051,3.051,0,0,0-1.587,0c-2.778.79-5.537,1.644-8.3,2.47-1.12.334-1.686-.088-1.692-1.248,0-.958.017-1.916-.008-2.873a1.466,1.466,0,0,1,.588-1.264c1.731-1.423,3.437-2.877,5.174-4.291a1.848,1.848,0,0,0,.729-1.58c-.018-4.482-.009-8.964-.009-13.446V37.59c-1.085.385-2.077.733-3.066,1.089Q13.632,42.618,2.7,46.559c-1.19.429-1.409.383-2.056-.44Z"/></svg>