<svg id="ef6e9cb0-f978-464b-a747-f9f8fa445aef" data-name="Layer 1" xmlns="http://www.w3.org/2000/svg" viewBox="0 0 64 64"><defs><style>.e56e7469-a4fd-4cff-b405-534d39a60a25{fill:#474747;}</style></defs><title>h</title><path class="e56e7469-a4fd-4cff-b405-534d39a60a25" d="M.635,10.784H4.714V32.6h58.5v20.38H59.171v-.737c0-3.158-.011-6.317.011-9.475,0-.509-.142-.649-.65-.649q-26.592.018-53.183,0c-.5,0-.657.132-.653.646.022,3.158.011,6.316.011,9.475v.853H.635Z"/><path class="e56e7469-a4fd-4cff-b405-534d39a60a25" d="M60.478,31.223H19.75a2.5,2.5,0,0,1-.053-.366c0-2.058-.024-4.116.014-6.174.051-2.84,1.591-4.328,4.468-4.33q13.724-.012,27.447,0c1.488,0,2.975-.011,4.463,0,2.726.025,4.21,1.326,4.369,4.039.126,2.153.049,4.317.06,6.477A3.207,3.207,0,0,1,60.478,31.223Z"/><path class="e56e7469-a4fd-4cff-b405-534d39a60a25" d="M11.527,31.5a5.7,5.7,0,1,1,5.693-5.666A5.723,5.723,0,0,1,11.527,31.5Z"/></svg>