<svg id="e8fc68b5-75ed-4688-873c-10e30a701e17" data-name="Layer 1" xmlns="http://www.w3.org/2000/svg" viewBox="0 0 64 64"><defs><style>.ace62fe3-1463-42f3-80cc-adff935d1252{fill:#474747;}</style></defs><title>h</title><path class="ace62fe3-1463-42f3-80cc-adff935d1252" d="M21.305,1.549a8.918,8.918,0,0,1,4.84,2.572A16.773,16.773,0,0,1,29.528,9.25,29.359,29.359,0,0,1,31.976,22.1c-.143,4.75-2.538,8.128-6.822,10.171-.161.076-.322.149-.527.244.03.606.064,1.216.089,1.827q.321,7.812.638,15.624c.1,2.337.178,4.675.3,7.01a5.122,5.122,0,0,1-4.149,5.366,5.056,5.056,0,0,1-5.863-3.89,4.731,4.731,0,0,1-.119-1.238q.288-7.278.6-14.555c.135-3.228.266-6.456.419-9.683a.613.613,0,0,0-.458-.691A11.333,11.333,0,0,1,9.178,21.568,31.058,31.058,0,0,1,11.657,9.251,15.837,15.837,0,0,1,15.7,3.523a8.883,8.883,0,0,1,4.179-1.974Z"/><path class="ace62fe3-1463-42f3-80cc-adff935d1252" d="M54.252,1.549c.055,2.04.1,4.081.167,6.12.134,3.982.346,7.963.4,11.946a9.205,9.205,0,0,1-5.075,8.7.85.85,0,0,0-.515.92q.547,12.624,1.058,25.249a26.9,26.9,0,0,1,.032,3.441,4.667,4.667,0,0,1-3.28,4.188,4.816,4.816,0,0,1-5.389-1.277,4.967,4.967,0,0,1-1.38-3.857q.265-6.327.532-12.654c.208-5.03.4-10.061.626-15.09a.849.849,0,0,0-.515-.92,9.193,9.193,0,0,1-5.074-8.758c.129-5.786.381-11.569.578-17.354.008-.217-.005-.434-.009-.652h3.211q.318,9.17.635,18.351h2.537c.213-6.153.424-12.252.634-18.351h3.807L47.87,19.9h2.536l.635-18.351Z"/></svg>