<svg id="b0d59d22-4876-46c9-b7e7-81ee277cd823" data-name="Layer 1" xmlns="http://www.w3.org/2000/svg" viewBox="0 0 64 64"><defs><style>.a940cdfc-bb6a-4a2f-80e4-e9c9bcdaa266{fill:#474747;}</style></defs><title>h</title><path class="a940cdfc-bb6a-4a2f-80e4-e9c9bcdaa266" d="M18.915,62.166a2.973,2.973,0,0,1-2.391-2.653,4.03,4.03,0,0,1,.326-1.76c1.585-3.927,3.212-7.837,4.82-11.754a2.026,2.026,0,0,0,.185-.671q.2-5.327.372-10.654c.007-.211,0-.422,0-.7h-2.69c-1.041,0-2.082.005-3.122,0a1.88,1.88,0,0,1-2.112-2.1c0-.588,0-1.176,0-1.869-.39,0-.753.01-1.115,0a1.266,1.266,0,0,1-1.339-1.33q-.025-2,0-4.006a1.253,1.253,0,0,1,1.282-1.325c.367-.023.736,0,1.172,0v-.707q0-4.979,0-9.956a1.859,1.859,0,0,1,2.119-2.13q3.212,0,6.422,0a1.82,1.82,0,0,1,1.964,1.933c.007.627,0,1.253,0,1.831,2.481,0,4.924-.009,7.367,0a3.582,3.582,0,0,1,3.691,3.679c.014,1.077,0,2.154,0,3.4a4.077,4.077,0,0,1-.941-.356c-1.155-.847-2.285-1.728-3.424-2.6a.723.723,0,0,0-.147-.021c.639.768,1.232,1.483,1.827,2.2.529.633,1.087,1.244,1.582,1.9a1.086,1.086,0,0,0,1,.452q3.712-.026,7.423,0a2.357,2.357,0,0,1,2.5,2.675,2.3,2.3,0,0,1-1.866,2.012,5.067,5.067,0,0,1-.879.068c-2.828,0-5.655-.013-8.483.011a2.954,2.954,0,0,1-2.5-1.175c-1.342-1.664-2.738-3.284-4.2-4.879a3.834,3.834,0,0,0,.149.377c.982,1.9,1.974,3.792,2.949,5.694a2.8,2.8,0,0,0,2.706,1.635c.742,0,1.484,0,2.3,0,0,.5,0,.948,0,1.393a32.387,32.387,0,0,0,.083,5.525,23.65,23.65,0,0,0,1.842,5.2,27.9,27.9,0,0,1,1.621,7.56c.415,2.993.8,5.99,1.225,8.981.33,2.309-.177,3.266-2.283,4.133H37.18a3.219,3.219,0,0,1-2.329-2.67c-.479-3.556-.946-7.114-1.451-10.666a24.057,24.057,0,0,0-.737-3.973c-.81-2.516-1.791-4.977-2.7-7.46-.4-1.091-.4-1.091-1.564-1.023a1.417,1.417,0,0,0-.2.051c-.019.186-.048.378-.056.571-.126,3-.236,6-.387,9a5.135,5.135,0,0,1-.356,1.647c-1.627,4.012-3.313,8-4.92,12.022a3.732,3.732,0,0,1-2.5,2.5Z"/><path class="a940cdfc-bb6a-4a2f-80e4-e9c9bcdaa266" d="M50.614,62.166a2.045,2.045,0,0,1-.887-1.3Q45.55,45.4,41.345,29.945c-.045-.165-.069-.337-.116-.57.744,0,1.449-.031,2.148.024.15.011.347.31.4.51q1.639,5.949,3.247,11.907,2.508,9.248,5.012,18.494c.268.99.134,1.326-.717,1.856Z"/><path class="a940cdfc-bb6a-4a2f-80e4-e9c9bcdaa266" d="M29.928,12.485a5.326,5.326,0,1,1,5.3-5.33A5.333,5.333,0,0,1,29.928,12.485Z"/></svg>