<svg id="a96fe4cc-50f5-490b-ab81-9f52ebb92e0f" data-name="Layer 1" xmlns="http://www.w3.org/2000/svg" viewBox="0 0 64 64"><defs><style>.feb31a31-69df-499f-a844-880a2f71aec3{fill:none;}.af3c032a-59ac-4bfc-ab5a-b75fdc60205c{fill:#474747;}</style></defs><title>h</title><path class="feb31a31-69df-499f-a844-880a2f71aec3" d="M39.28,33.2a12.2,12.2,0,0,0-1.392-.2c0-.48.021-.925,0-1.368a6.533,6.533,0,0,0-1.66-4.34,5.731,5.731,0,0,0-6.1-1.445c-2.312.658-3.451,2.41-3.863,4.673-.15.821-.145,1.671-.215,2.547-.214,0-.413-.008-.61,0a3.186,3.186,0,0,0-3.062,3.121q-.043,3.846,0,7.7a3.133,3.133,0,0,0,3.08,3.093q6.556.045,13.115,0a3.116,3.116,0,0,0,3.061-3.04c.043-2.609.036-5.219,0-7.828A3.094,3.094,0,0,0,39.28,33.2Zm-3.641-.148H28.353a4.8,4.8,0,0,1,1.526-4.768,4.166,4.166,0,0,1,4.373.092A4.856,4.856,0,0,1,35.639,33.049Z"/><path class="af3c032a-59ac-4bfc-ab5a-b75fdc60205c" d="M60.365,21.694Q47.159,13.228,33.945,4.776a3.316,3.316,0,0,0-3.882,0Q16.884,13.225,3.7,21.659a3.218,3.218,0,1,0,3.448,5.415c.75-.471,1.5-.951,2.358-1.5v.883q0,12.217,0,24.436a8.571,8.571,0,0,0,8.973,8.956q13.524,0,27.047,0A8.574,8.574,0,0,0,54.5,50.9q0-12.252,0-24.5v-.821c.879.562,1.621,1.094,2.417,1.524a4.681,4.681,0,0,0,1.678.584A3.144,3.144,0,0,0,61.838,25.5,3.206,3.206,0,0,0,60.365,21.694ZM41.628,43.939a3.116,3.116,0,0,1-3.061,3.04q-6.558.048-13.115,0a3.133,3.133,0,0,1-3.08-3.093q-.05-3.847,0-7.695a3.186,3.186,0,0,1,3.062-3.121c.2-.01.4,0,.61,0,.07-.876.065-1.726.215-2.547.412-2.263,1.551-4.015,3.863-4.673a5.731,5.731,0,0,1,6.105,1.445,6.533,6.533,0,0,1,1.66,4.34c.024.443,0,.888,0,1.368a12.2,12.2,0,0,1,1.392.2,3.094,3.094,0,0,1,2.349,2.914C41.664,38.72,41.671,41.33,41.628,43.939Z"/><path class="af3c032a-59ac-4bfc-ab5a-b75fdc60205c" d="M34.252,28.373a4.166,4.166,0,0,0-4.373-.092,4.8,4.8,0,0,0-1.526,4.768h7.286A4.856,4.856,0,0,0,34.252,28.373Z"/></svg>