<svg id="aa4de0a3-6e13-4aa6-88d5-e07c6f039e43" data-name="Layer 1" xmlns="http://www.w3.org/2000/svg" viewBox="0 0 64 64"><title>h</title><path d="M33.646.928c1.16.158,2.326.285,3.481.478a31.016,31.016,0,0,1,25.11,24.649c1.967,10.734-.869,20.135-8.466,27.964a29.677,29.677,0,0,1-18.419,8.972A31.047,31.047,0,0,1,1.367,39.108c-.348-1.472-.474-3-.706-4.495-.03-.2-.072-.394-.109-.591V30.25c.156-1.159.274-2.325.473-3.477A30.829,30.829,0,0,1,7.3,12.725c.479-.608.981-.732,1.447-.367.449.352.453.9-.018,1.5A28.655,28.655,0,0,0,2.81,27.14,28.644,28.644,0,0,0,8.37,49.786,27.976,27.976,0,0,0,22.941,60.032a28.45,28.45,0,0,0,26.514-4.681A28.029,28.029,0,0,0,60.594,36.935a28.394,28.394,0,0,0-6.453-23.671A28.135,28.135,0,0,0,35.773,3.055,28.769,28.769,0,0,0,12.588,9.843c-.264.221-.512.461-.774.685-.514.437-1.028.447-1.4.034a.912.912,0,0,1,.18-1.383A30.977,30.977,0,0,1,29.4,1.027a3.542,3.542,0,0,0,.47-.1Z"/><path d="M27.452,9.767c0-.99.019-2-.006-3.015a2.126,2.126,0,0,1,1.279-2.268,2.156,2.156,0,0,1,2.512.691c1.479,1.474,2.982,2.924,4.49,4.368a1.617,1.617,0,0,0,.717.4A22.572,22.572,0,0,1,54.152,29.393,22.1,22.1,0,0,1,49.68,45.8c-.3.4-.53.854-.8,1.275a16.415,16.415,0,0,1-1.086,1.6c-1.078,1.29-2.207,2.538-3.3,3.816A11.977,11.977,0,0,1,41.1,55.223c-.618.339-1.144.233-1.413-.275a.925.925,0,0,1,.515-1.3,12.366,12.366,0,0,0,3.778-3.378c.686-.851,1.416-1.67,2.163-2.468a5.369,5.369,0,0,0-.279-7.982c-.946-.882-1.826-1.841-2.692-2.8a10.946,10.946,0,0,0-11.636-3.565c-1.917.5-3.8,1.129-5.684,1.754a5.28,5.28,0,0,0-3.584,6.584A3.315,3.315,0,0,1,22.1,44.15a2.826,2.826,0,0,1-1.66,1.521A4.017,4.017,0,0,0,17.4,49.3a4.72,4.72,0,0,0,2.25,4.384,4.96,4.96,0,0,0,4.408.728,11.591,11.591,0,0,1,7.166.168,10.5,10.5,0,0,0,4.975.451.934.934,0,0,1,1.18.755c.077.505-.265.92-.88,1.026a11.331,11.331,0,0,1-5.288-.341,10.856,10.856,0,0,0-4.892-.666c-.658.1-1.309.262-1.956.421a7.1,7.1,0,0,1-8.781-6.009,6.291,6.291,0,0,1,.074-1.63.966.966,0,0,0-.25-.86c-.911-1.084-1.775-2.207-2.668-3.307a1.128,1.128,0,0,0-.483-.405,4.885,4.885,0,0,1-3.073-2.666,11.828,11.828,0,0,1-1.2-4.983A33.135,33.135,0,0,1,11.213,21.3,26.861,26.861,0,0,1,15.9,13.95a11.969,11.969,0,0,1,3.627-2.817,4.963,4.963,0,0,1,3.945-.334.794.794,0,0,0,.458.015C25.075,10.483,26.215,10.137,27.452,9.767ZM16.526,46.346a6.13,6.13,0,0,1,2.829-2.217c1.188-.451,1.391-.838,1.088-2.077a7.083,7.083,0,0,1,4.6-8.5c1.934-.658,3.881-1.292,5.854-1.82a12.716,12.716,0,0,1,13.668,4.112c.648.725,1.282,1.47,1.995,2.127,1.4,1.292,2.685,2.637,2.983,4.662A20.32,20.32,0,0,0,52.387,29.9c-.559.024-1.043.064-1.526.064q-10.551.011-21.1.009a2.088,2.088,0,0,1-2.3-2.3q-.009-7.6-.006-15.2v-.771l-2.045.547a4.253,4.253,0,0,1,.05,4.879,44.818,44.818,0,0,0-4.416,8.769A52.382,52.382,0,0,0,17.452,40.4a4.025,4.025,0,0,1-2.148,3.2c-.2.121-.424.217-.707.359ZM51.812,28.074l.078-.21L29.529,6.073l-.182.1a5.818,5.818,0,0,0-.067.628q-.006,10.337-.014,20.673c0,.545.176.686.7.685q10.609-.021,21.22-.013A5.151,5.151,0,0,0,51.812,28.074ZM17.731,29.841c-.6-.208-1.138-.387-1.668-.579a2.343,2.343,0,1,1,1.531-4.423c.55.181,1.095.372,1.672.568l.727-1.842c-.241-.1-.408-.166-.578-.227a2.336,2.336,0,1,1,1.468-4.432c.382.112.758.242,1.107.354.7-1.129,1.4-2.2,2.035-3.3a2.324,2.324,0,0,0-1.7-3.545,4.309,4.309,0,0,0-2.095.432,11.737,11.737,0,0,0-4.379,4.035,33.455,33.455,0,0,0-5.684,13.873,19.7,19.7,0,0,0,0,8.028,5.365,5.365,0,0,0,1.454,2.822,2.342,2.342,0,0,0,3.966-1.154c.269-1.34.339-2.721.485-3.977A12.467,12.467,0,0,1,13.994,35.3a1.9,1.9,0,0,1-.521-2.227,3.2,3.2,0,0,1,.955-1.276,2.557,2.557,0,0,1,2.734-.017ZM38.955,12.708,50.839,24.287l.12-.123A20.284,20.284,0,0,0,38.955,12.708ZM18.623,27.132a15.868,15.868,0,0,0-1.71-.571c-.194-.043-.448.184-.675.288.121.222.187.555.371.643a15.4,15.4,0,0,0,1.67.6Zm2.616-6.3c-.578-.057-1.034-.123-1.489-.122-.062,0-.221.456-.169.5a12.343,12.343,0,0,0,1.125.754ZM16.711,33.543a3.172,3.172,0,0,0-.859-.268c-.212,0-.546.137-.605.3a.71.71,0,0,0,.268.614,4.189,4.189,0,0,0,.96.36Z"/><path d="M34.489,51.114a6.8,6.8,0,1,1,6.921-6.631A6.777,6.777,0,0,1,34.489,51.114Zm-4.864-6.828a4.981,4.981,0,1,0,5.018-4.933A4.968,4.968,0,0,0,29.625,44.286Z"/><path d="M41.524,21.376c.221.173.575.317.669.561a1.1,1.1,0,0,1-.067.947c-1.12,1.2-2.287,2.356-3.472,3.491A.785.785,0,0,1,37.5,26.3a.8.8,0,0,1-.07-1.2c1.122-1.17,2.279-2.308,3.437-3.443A2.357,2.357,0,0,1,41.524,21.376Z"/><path d="M31.981,20.581c-.24-.194-.607-.352-.714-.616a1.076,1.076,0,0,1,.1-.941c1.107-1.183,2.256-2.33,3.43-3.448a.809.809,0,0,1,1.2.085.825.825,0,0,1,.017,1.21c-1.113,1.151-2.255,2.275-3.4,3.395A2.643,2.643,0,0,1,31.981,20.581Z"/><path d="M39.4,19.251a3.85,3.85,0,0,1-.432.76Q37.4,21.621,35.79,23.2a.883.883,0,0,1-1.346.056A.9.9,0,0,1,34.52,21.9c1.052-1.07,2.1-2.149,3.2-3.166a1.294,1.294,0,0,1,1.035-.21C39.007,18.591,39.178,18.984,39.4,19.251Z"/></svg>