<svg id="aea46518-d8f4-4a72-9936-a575006929fe" data-name="Layer 1" xmlns="http://www.w3.org/2000/svg" viewBox="0 0 64 64"><title>h</title><path d="M1.5,22.9a7.24,7.24,0,0,1,2.564-3.18,40.373,40.373,0,0,1,20.2-9.94,41.082,41.082,0,0,1,33.074,7.894,50.913,50.913,0,0,1,3.9,3.385,3.253,3.253,0,1,1-4.463,4.719,36.627,36.627,0,0,0-7.984-5.94A34.766,34.766,0,0,0,30.2,15.617,34.619,34.619,0,0,0,9.849,23.362c-.88.7-1.706,1.479-2.53,2.251C5.16,27.637,2.572,27.026,1.58,24.246a1.118,1.118,0,0,0-.085-.155Z"/><path d="M31.625,28.232a22.208,22.208,0,0,0-14.7,5.747,6.049,6.049,0,0,1-2.354,1.655,3.255,3.255,0,0,1-3.587-1.342,3.154,3.154,0,0,1,.161-3.769,23.008,23.008,0,0,1,5.057-4.2,28.391,28.391,0,0,1,17.1-4.584,28.494,28.494,0,0,1,19.08,8.368,3.244,3.244,0,0,1,.188,4.6,3.189,3.189,0,0,1-4.58.182,30.934,30.934,0,0,0-4.556-3.508A22.99,22.99,0,0,0,31.625,28.232Z"/><path d="M41.229,44.564a3.375,3.375,0,0,1-2.376-1.124,9.252,9.252,0,0,0-3.622-2.2,9.88,9.88,0,0,0-10.068,2.084,4.005,4.005,0,0,1-2.313,1.221,3.224,3.224,0,0,1-3.311-1.919,3.26,3.26,0,0,1,.764-3.707,16.337,16.337,0,0,1,13.165-4.68A16.075,16.075,0,0,1,43.589,38.96a3.246,3.246,0,0,1-2.36,5.6Z"/><path d="M31.949,55.055a4.327,4.327,0,1,1,4.322-4.349A4.332,4.332,0,0,1,31.949,55.055Z"/></svg>