<svg id="bee35579-4ff3-41f0-8e02-c1e308fc713a" data-name="Layer 1" xmlns="http://www.w3.org/2000/svg" viewBox="0 0 64 64"><title>h</title><path d="M1.388,32.118c.343-1.156.612-2.341,1.045-3.462a11.972,11.972,0,0,1,3.139-4.309c.6-.57,1.13-1.221,1.63-1.769A18.292,18.292,0,0,1,5.16,21.392a4.21,4.21,0,0,1-1.137-1.349,1.754,1.754,0,0,1,.732-2.511,6.457,6.457,0,0,1,4.447-.7,1.857,1.857,0,0,1,1.528,1.634c.044.23.077.462.127.763.2-.183.366-.321.519-.468,1.594-1.533,3.181-3.073,4.781-4.6a7.664,7.664,0,0,1,5.452-2.2q10.4-.017,20.8,0a7.647,7.647,0,0,1,5.446,2.21c1.739,1.664,3.469,3.338,5.274,5.075.042-.224.073-.367.1-.511a2.006,2.006,0,0,1,2.061-1.99,6.715,6.715,0,0,1,3.769.676,1.91,1.91,0,0,1,.72,3.012,5.233,5.233,0,0,1-2.6,1.914c-.164.062-.331.118-.73.259a6.431,6.431,0,0,1,.7.521,21.039,21.039,0,0,1,3.706,4.112,12.067,12.067,0,0,1,1.765,6.178q-.016,3.585,0,7.172A7.434,7.434,0,0,1,60.891,45.5a1.245,1.245,0,0,0-.231.7c-.042.994,0,1.994-.077,2.984a3.05,3.05,0,0,1-2.754,2.778,39.862,39.862,0,0,1-4.714.029,3.167,3.167,0,0,1-3.13-3.266c-.013-.213,0-.428,0-.67H14.056c-.031.377-.052.73-.091,1.082a3.1,3.1,0,0,1-2.841,2.832,39.373,39.373,0,0,1-4.6.03,3.194,3.194,0,0,1-3.177-3.406c-.018-.8,0-1.593-.009-2.39a.936.936,0,0,0-.118-.561,8.25,8.25,0,0,1-1.836-3.954Zm9.837-8.8H52.756a2.53,2.53,0,0,0-.183-.239c-2.288-2.218-4.558-4.456-6.877-6.642a4.6,4.6,0,0,0-3.209-1.26q-10.488-.016-20.975,0a4.709,4.709,0,0,0-3.3,1.337c-2.251,2.142-4.469,4.318-6.7,6.482C11.43,23.079,11.359,23.17,11.225,23.321ZM18,32.832a7.347,7.347,0,0,0,.792,3.534,3.838,3.838,0,0,0,3.766,2.3c6.373-.056,12.747-.017,19.12-.032a4.527,4.527,0,0,0,1.515-.236,3.782,3.782,0,0,0,2.016-2.02,7.031,7.031,0,0,0,.787-3.543Zm1.125,8.256a3.509,3.509,0,0,0,3.8,3.486q9.08.011,18.159,0c.238,0,.478-.007.716-.029a3.407,3.407,0,0,0,3.038-3.458Zm-9.589-5.71,0-.061a18.406,18.406,0,0,0,1.909-.013,18.274,18.274,0,0,0,2.7-.44c1.116-.29,1.354-1.043.7-1.981a4.923,4.923,0,0,0-.7-.813,17.272,17.272,0,0,0-5.824-3.535,3.04,3.04,0,0,0-3.4.773A3.355,3.355,0,0,0,4.1,33a3.128,3.128,0,0,0,2.689,2.234C7.7,35.341,8.618,35.333,9.531,35.378Zm44.919.093.017-.093c.913-.045,1.833-.037,2.738-.147A3.13,3.13,0,0,0,59.894,33a3.355,3.355,0,0,0-.818-3.688,3.057,3.057,0,0,0-3.4-.776,16.823,16.823,0,0,0-4.916,2.761,9.488,9.488,0,0,0-1.72,1.8c-.512.7-.263,1.318.537,1.678a2.2,2.2,0,0,0,.62.2C51.614,35.149,53.033,35.308,54.45,35.471ZM16.816,44.545a.922.922,0,0,0-.087-.206c-1.3-1.5-2.608-3.011-3.93-4.5a.847.847,0,0,0-.569-.224q-2.868-.026-5.736,0a.7.7,0,0,0-.517.187,2.449,2.449,0,0,0-.266,2.594,4.142,4.142,0,0,0,3.573,2.15c2.343.131,4.7.032,7.049.028C16.482,44.572,16.631,44.556,16.816,44.545Zm30.285.037c2.455,0,4.765-.03,7.074.012a5.132,5.132,0,0,0,3.248-1.146,2.507,2.507,0,0,0,.761-3.391.712.712,0,0,0-.736-.455c-1.872.017-3.745,0-5.616.024a1.148,1.148,0,0,0-.743.355c-1.239,1.377-2.448,2.78-3.665,4.176C47.338,44.256,47.265,44.365,47.1,44.582Z"/></svg>