<svg id="a5600ad5-0d70-40b8-9ee5-5e5ba4343789" data-name="Layer 1" xmlns="http://www.w3.org/2000/svg" viewBox="0 0 64 64"><title>h</title><path d="M57.039,14.772a3.79,3.79,0,0,1,1.016.57,2.271,2.271,0,0,1,.618,1.149,16.447,16.447,0,0,1,.037,2.33.538.538,0,0,1-.158.388c-.306.214-.213.432-.113.712a30.11,30.11,0,0,1,1.136,3.4,8.062,8.062,0,0,1,.109,2.59,5.338,5.338,0,0,0,1.488,4.527,6.466,6.466,0,0,1,1.881,4.645q.009,8.076,0,16.152a3.955,3.955,0,0,1-4.074,4.074q-3.84.009-7.68,0a3.955,3.955,0,0,1-4.076-4.074q-.009-8.076,0-16.151A6.465,6.465,0,0,1,49.1,30.442a5.208,5.208,0,0,0,1.473-4.526,8.275,8.275,0,0,1,.546-4.152c.261-.662.507-1.329.769-1.991a.375.375,0,0,0-.08-.479,1.086,1.086,0,0,1-.25-.631c-.037-.459-.012-.923-.012-1.384a2.164,2.164,0,0,1,1.688-2.507Zm-8.191,30.16H61.416V41.461c-.939,0-1.822.008-2.7,0a.775.775,0,0,1-.8-.761.8.8,0,0,1,.757-.811c.17-.016.343-.007.514-.007h1.81a6.3,6.3,0,0,0-6.212-4.011c-2.511.192-5.17,2.134-5.467,4.012.741,0,1.479,0,2.217,0a.7.7,0,0,1,.743.477.788.788,0,0,1-.791,1.089c-.865.038-1.733.014-2.635.014ZM52.237,27.56a.907.907,0,0,0-.081.179,6.892,6.892,0,0,1-2,3.9,4.105,4.105,0,0,0-1.225,2.389c-.13,1.089-.119,2.193-.169,3.291l.1.033a7.955,7.955,0,0,1,12.612.062c0-.756-.014-1.414,0-2.071A5.215,5.215,0,0,0,59.9,31.389a6.383,6.383,0,0,1-1.678-3.128l-.15-.657-.113-.051a2.483,2.483,0,0,1-.231.32c-.649.657-1.3,1.313-1.958,1.958a.8.8,0,0,1-1.25.011c-.116-.108-.225-.223-.337-.335Zm2.916.67c.82-.827,1.555-1.666,2.4-2.383a1.717,1.717,0,0,0,.582-1.783A4,4,0,0,0,58,23.405q-.658-1.86-1.351-3.709c-.033-.087-.218-.163-.334-.165-.778-.015-1.557,0-2.335-.014a.377.377,0,0,0-.42.3c-.329.889-.728,1.757-.995,2.664a19.923,19.923,0,0,0-.454,2.393.524.524,0,0,0,.1.4C53.168,26.254,54.141,27.218,55.153,28.23Zm5.818,18.328H49.293a6.234,6.234,0,0,0,6.031,4C57.82,50.5,60.487,48.615,60.971,46.558Zm.474,2.472A7.96,7.96,0,0,1,48.805,49c0,.845-.008,1.591,0,2.337a2.365,2.365,0,0,0,2.39,2.386q3.939.015,7.878,0A2.293,2.293,0,0,0,61.427,51.7,25.343,25.343,0,0,0,61.445,49.03Zm-4.306-31.1c0-.389.01-.742,0-1.1a.443.443,0,0,0-.477-.469c-1.013-.009-2.026-.021-3.037.014a.616.616,0,0,0-.453.375,6.836,6.836,0,0,0-.022,1.175Z"/><path d="M55.139,41.46a.787.787,0,0,1-.789-.8.789.789,0,1,1,1.577.038A.789.789,0,0,1,55.139,41.46Z"/><path d="M24.627,9.648c.924.2,1.846.42,2.774.61q4.686.965,9.375,1.91a1.993,1.993,0,0,1,1.04,3.461c-.626.618-1.242,1.245-1.867,1.864-.4.391-.77.425-1.069.11-.276-.292-.23-.672.136-1.041q.9-.906,1.8-1.8c.226-.224.421-.449.318-.806s-.387-.448-.7-.512l-9.592-1.947-2.324-.47c-.718-.147-1.079.2-.934.917.441,2.195.893,4.388,1.341,6.581.366,1.792.737,3.583,1.1,5.376a.758.758,0,0,0,.49.667.723.723,0,0,0,.776-.278q2.531-2.536,5.066-5.067a2.447,2.447,0,0,1,.321-.3.608.608,0,0,1,.84.055.627.627,0,0,1,.056.876,1.712,1.712,0,0,1-.209.226c-1.73,1.73-3.455,3.466-5.193,5.188a1.942,1.942,0,0,1-3-.108,2.547,2.547,0,0,1-.432-.991q-1.248-6.018-2.46-12.042c-.236-1.168.267-1.954,1.556-2.477Z"/><path d="M15.37,37.851A4.13,4.13,0,0,1,18.255,36.8a.7.7,0,0,0,.376-.186,4.164,4.164,0,0,1,3.973-.736.444.444,0,0,0,.605-.2c1.566-2.247,3.2-4.449,4.7-6.74a2.1,2.1,0,0,1,3.734.094c1.4,2.416,2.94,4.757,4.4,7.139a.507.507,0,0,0,.636.277c.584-.138,1.173-.253,1.763-.362A1.963,1.963,0,0,1,40.757,38.4c-.28,1.451-.586,2.9-.879,4.346-.035.17-.062.341-.1.567.463,0,.884,0,1.3,0A1.1,1.1,0,0,1,42.2,44.844q-1.4,4.48-2.82,8.957a1.144,1.144,0,0,1-1.3.868q-7.584,0-15.167,0-9.342,0-18.683,0c-.906,0-1.179-.2-1.456-1.077Q1.407,49.26.043,44.928C-.266,43.947.2,43.3,1.226,43.32a.667.667,0,0,0,.746-.474Q4.215,37.7,6.507,32.567A1.908,1.908,0,0,1,8.9,31.39a2.727,2.727,0,0,1,1.037.7c1.722,1.8,3.416,3.626,5.12,5.443C15.146,37.624,15.239,37.717,15.37,37.851Zm-14.013,6.8c.046.165.082.3.124.438.428,1.367.872,2.731,1.277,4.105a.546.546,0,0,0,.639.459q12.725-.016,25.45-.008c.161,0,.323-.007.483.006a.646.646,0,0,1,.113,1.27,2.319,2.319,0,0,1-.566.041q-12.484,0-24.967,0H3.328l.749,2.376H38.143l.746-2.376h-.532q-2.791,0-5.583,0a1.87,1.87,0,0,1-.519-.054.644.644,0,0,1,.112-1.252,3.375,3.375,0,0,1,.439-.01c2.036,0,4.073-.008,6.109.007a.445.445,0,0,0,.515-.382c.392-1.3.81-2.6,1.218-3.894.073-.231.142-.463.223-.725ZM13.4,43.284c-.22-.766-.424-1.495-.647-2.218-.024-.08-.153-.155-.247-.182-.43-.125-.662-.382-.6-.73a.678.678,0,0,1,.755-.586c.411,0,.821-.006,1.231,0,.229,0,.4-.005.51-.281a.521.521,0,0,0-.109-.651C12.523,36.766,10.766,34.88,9,33c-.569-.6-1.014-.523-1.355.248q-2.131,4.815-4.258,9.631c-.056.126-.1.259-.151.406H4.909c.03-.7.246-.982.714-.948.429.031.624.342.587.947Zm10.657-6.5c.237.013.376.025.516.026A3.777,3.777,0,0,1,27.365,38a.647.647,0,0,0,.693.2c1.26-.265,2.522-.516,3.783-.774,1-.2,1.994-.412,3.03-.626-.089-.158-.148-.273-.216-.382q-2.1-3.375-4.2-6.748c-.451-.725-.91-.732-1.407-.024Q26.688,33,24.33,36.365C24.256,36.471,24.19,36.583,24.06,36.786Zm4.352,2.685.007.1c.546,0,1.092-.016,1.637.006a.655.655,0,0,1,.081,1.3c-.113.024-.285.08-.31.16-.231.734-.435,1.477-.654,2.239H35.2c-.2-.392-.26-.774.128-1a.869.869,0,0,1,.723-.013c.425.225.321.629.162,1.016H38.42c.352-1.724.711-3.427,1.044-5.134.1-.526-.318-.867-.882-.753q-3.246.657-6.491,1.321Zm.056,1.456H14.106l.677,2.367H27.791Zm-1.554-1.378c-.143-.2-.223-.34-.324-.459a2.6,2.6,0,0,0-2.167-.958,1.376,1.376,0,0,1-1.092-.322,2.905,2.905,0,0,0-4.085.013,1.687,1.687,0,0,1-.739.3c-.224.049-.469-.006-.7.021a2.638,2.638,0,0,0-2.086,1.406Z"/><path d="M21.586,19.587c-.144.728-.324,1.646-.508,2.563-.1.488-.2.976-.309,1.46a.656.656,0,1,1-1.275-.28c.235-1.176.48-2.351.716-3.527.165-.817-.166-1.157-.975-.993Q13.3,20.019,7.367,21.233c-.3.061-.572.147-.678.47a.757.757,0,0,0,.28.818q4.776,4.767,9.542,9.542a.755.755,0,0,0,.779.279c.328-.093.433-.347.5-.655.337-1.679.685-3.355,1.031-5.031.11-.531.413-.767.839-.664.391.1.549.435.444.949-.338,1.663-.682,3.325-1.012,4.99a2,2,0,0,1-3.5,1.074q-4.779-4.794-9.572-9.573a1.993,1.993,0,0,1-.6-2.079,1.965,1.965,0,0,1,1.639-1.409q5.979-1.213,11.956-2.434A2.028,2.028,0,0,1,21.586,19.587Z"/><path d="M16.5,23.535a.658.658,0,0,1,.646.64.677.677,0,0,1-.67.67.668.668,0,0,1-.641-.693A.651.651,0,0,1,16.5,23.535Z"/><path d="M26.713,13.829a.677.677,0,0,1-.69.649.656.656,0,0,1,.061-1.311A.672.672,0,0,1,26.713,13.829Z"/><path d="M33.974,14.9a.652.652,0,0,1-.642.64.656.656,0,0,1-.011-1.312A.649.649,0,0,1,33.974,14.9Z"/><path d="M26.278,17.62a.65.65,0,0,1,1.3.113.674.674,0,0,1-.686.6A.66.66,0,0,1,26.278,17.62Z"/><path d="M14.03,26.432a.641.641,0,0,1-.683.638.635.635,0,0,1-.616-.658.661.661,0,0,1,.635-.649A.669.669,0,0,1,14.03,26.432Z"/><path d="M31.86,17.865a.659.659,0,0,1-.628.656.671.671,0,0,1-.675-.661.657.657,0,0,1,.679-.65A.645.645,0,0,1,31.86,17.865Z"/><path d="M27.529,21.8a.626.626,0,0,1-.63-.64.646.646,0,0,1,.662-.661.671.671,0,0,1,.641.649A.65.65,0,0,1,27.529,21.8Z"/><path d="M17.427,21.915a.643.643,0,0,1-.654-.623.648.648,0,0,1,1.3-.059A.65.65,0,0,1,17.427,21.915Z"/><path d="M14.223,22.125a.66.66,0,0,1-.629.655.649.649,0,0,1-.058-1.3A.659.659,0,0,1,14.223,22.125Z"/><path d="M10.735,22.751a.652.652,0,0,1-.671.656.667.667,0,0,1-.64-.649.655.655,0,0,1,.676-.65A.641.641,0,0,1,10.735,22.751Z"/><path d="M29.632,14.767a.66.66,0,0,1-.692.637.651.651,0,0,1-.619-.663.644.644,0,0,1,.688-.632A.651.651,0,0,1,29.632,14.767Z"/><path d="M16.364,29.182a.632.632,0,0,1-.65-.666.649.649,0,0,1,1.3,0A.633.633,0,0,1,16.364,29.182Z"/><path d="M6.423,39.762a.666.666,0,0,1,.648-.642.678.678,0,0,1,.663.676.66.66,0,0,1-.7.633A.648.648,0,0,1,6.423,39.762Z"/><path d="M10.474,41.653a.636.636,0,0,1-.639.636.66.66,0,0,1-.671-.658.683.683,0,0,1,.65-.647A.656.656,0,0,1,10.474,41.653Z"/><path d="M9.244,36.137a.655.655,0,0,1-.631.654.679.679,0,0,1-.678-.661.657.657,0,0,1,.685-.643A.636.636,0,0,1,9.244,36.137Z"/><path d="M10.426,39.237a.671.671,0,0,1-.646-.644.655.655,0,0,1,.672-.655.637.637,0,0,1,.637.681A.648.648,0,0,1,10.426,39.237Z"/><path d="M30.085,32.638a.656.656,0,0,1-.626.659.656.656,0,1,1-.006-1.311A.654.654,0,0,1,30.085,32.638Z"/><path d="M31.411,35.389a.631.631,0,0,1-.653.663.655.655,0,0,1-.651-.632.664.664,0,0,1,.664-.667A.638.638,0,0,1,31.411,35.389Z"/><path d="M27.883,35.923a.639.639,0,0,1-.631.645.654.654,0,0,1-.679-.648.676.676,0,0,1,.638-.656A.659.659,0,0,1,27.883,35.923Z"/><path d="M33.423,40.74a.649.649,0,0,1-.628.653.663.663,0,0,1-.683-.65.676.676,0,0,1,.679-.66A.663.663,0,0,1,33.423,40.74Z"/><path d="M36.647,40.52a.651.651,0,0,1-.675-.652.656.656,0,1,1,1.312,0A.651.651,0,0,1,36.647,40.52Z"/></svg>