<svg id="ea4a19f5-681c-40ed-8ffe-9df651313452" data-name="Layer 1" xmlns="http://www.w3.org/2000/svg" viewBox="0 0 64 64"><title>h</title><path d="M54.548,62.024H9.479a11.339,11.339,0,0,1-1.651-.538A5.219,5.219,0,0,1,4.863,56.4q.015-24.4.012-48.8A6.571,6.571,0,0,1,5.033,5.97a5.152,5.152,0,0,1,5.181-3.985c1.99-.017,3.98,0,5.97,0q18.671,0,37.341,0a5.542,5.542,0,0,1,3.56,1.088,5.4,5.4,0,0,1,2.052,4.559Q59.119,32,59.128,56.372a9.119,9.119,0,0,1-.033.935,5.164,5.164,0,0,1-1.82,3.481A6.309,6.309,0,0,1,54.548,62.024ZM8.348,17.578c-.011.239-.027.43-.027.62q0,19.131,0,38.262c0,1.456.638,2.091,2.112,2.091q21.562,0,43.125,0c1.506,0,2.125-.623,2.125-2.139q0-19.1,0-38.2c0-.206-.02-.411-.031-.63ZM8.32,14.113H54.852c.137,0,.274-.008.41,0,.285.02.427-.074.425-.393-.011-2.183.019-4.367-.023-6.55A1.675,1.675,0,0,0,53.9,5.457c-.136-.006-.273,0-.409,0h-43c-.136,0-.273,0-.409,0a1.722,1.722,0,0,0-1.756,1.8c-.019.838,0,1.676,0,2.515Z"/><path d="M32.013,21.316A16.738,16.738,0,1,1,15.251,38.007,16.791,16.791,0,0,1,32.013,21.316Zm12.92,13.952a13.157,13.157,0,0,0-13.995-10.43,12.837,12.837,0,0,0-8.906,4.479,12.51,12.51,0,0,0-2.991,5.943c1.044.542,1.971,1.071,2.94,1.51a8.355,8.355,0,0,0,2.026.66A5.121,5.121,0,0,0,27.683,36.4a7.733,7.733,0,0,1,3.68-1.2A9.133,9.133,0,0,1,37,36.771a4.661,4.661,0,0,0,4.89.094Zm-26.14,3.7A13.27,13.27,0,0,0,33.6,51.242c7.686-.968,11.64-7.773,11.524-12.243-.478.275-.936.526-1.382.8a8.167,8.167,0,0,1-4.4,1.16,8.532,8.532,0,0,1-4.654-1.512,4.963,4.963,0,0,0-3.4-.746,7.124,7.124,0,0,0-2.654,1.152,8.068,8.068,0,0,1-7.517.373C20.331,39.882,19.608,39.416,18.793,38.971Z"/><path d="M41.809,11.487c-.6,0-1.209.024-1.811-.006a1.709,1.709,0,0,1,.015-3.416q1.81-.045,3.623,0a1.707,1.707,0,0,1,.043,3.409c-.622.035-1.246.007-1.87.007Z"/><path d="M51.05,11.486c-.6,0-1.209.025-1.812-.005a1.709,1.709,0,0,1,.015-3.416q1.811-.043,3.623,0a1.707,1.707,0,0,1,.043,3.409c-.621.035-1.246.007-1.869.007Z"/></svg>