<svg id="e3de64ac-b437-4490-875b-5d52194c62c1" data-name="Layer 1" xmlns="http://www.w3.org/2000/svg" viewBox="0 0 64 64"><title>h</title><path d="M26.39,62.516a3,3,0,0,1-.606-.824c-.179-.624.287-1.119,1.008-1.16.337-.019.676,0,1.014,0H28.9c0-.685,0-1.335,0-1.985a3.142,3.142,0,0,1,1.785-3,.672.672,0,0,0,.325-.472c.018-3.4.013-6.8.009-10.2a1.778,1.778,0,0,0-.06-.291h-.706q-5.223,0-10.444,0c-1.775,0-2.509-.73-2.511-2.488V40.331c-.394,0-.744.011-1.093,0a.976.976,0,1,1,0-1.95c.553-.022,1.107,0,1.713,0-.149-.619-.146-1.2-.977-1.3-.26-.031-.573-.515-.664-.846a.808.808,0,0,1,.617-.958,1.785,1.785,0,0,1,.584-.079q3.969-.008,7.938,0a1.832,1.832,0,0,1,.639.1.789.789,0,0,1,.568.932c-.085.321-.368.808-.6.831-.8.08-.9.621-1.028,1.257h6V16.07h-.747q-13.368,0-26.737.013a2.024,2.024,0,0,1-2.062-1.065v-.836a2.249,2.249,0,0,1,1.344-1.17Q16.976,7.355,31.152,1.664a2.122,2.122,0,0,1,1.709,0Q47.012,7.346,61.173,13a5.347,5.347,0,0,1,.6.266,1.468,1.468,0,0,1,.772,1.494,1.451,1.451,0,0,1-1.182,1.259,3.951,3.951,0,0,1-.77.049q-13.395,0-26.79,0h-.789V38.311h6.025c-.193-.545-.149-1.167-1-1.239-.247-.021-.561-.522-.648-.854a.8.8,0,0,1,.629-.949,2.039,2.039,0,0,1,.644-.075q3.909-.008,7.817,0c.233,0,.55-.018.682.115a1.617,1.617,0,0,1,.555.935c0,.287-.357.793-.6.817-.808.081-.867.647-1.057,1.309.578,0,1.1-.01,1.628,0,.7.016,1.12.383,1.133.96.014.6-.43.987-1.151,1-.3.005-.589,0-.967,0,0,.561-.034,1.074.006,1.58.16,2-1.074,2.708-2.643,2.68-3.439-.059-6.881-.018-10.321-.018H32.98v.653c0,3.2.008,6.4-.009,9.6a.783.783,0,0,0,.5.813,2.951,2.951,0,0,1,1.63,2.66c.024.711,0,1.424,0,2.222.633,0,1.221.007,1.809,0,.545-.009,1.062.053,1.279.646.223.609-.1,1.017-.578,1.345ZM41.967,14.051,31.985,4.076l-9.977,9.975Zm-36.175-.1,0,.1c.093.007.186.021.279.021,4.154,0,8.308.006,12.461-.013a1.132,1.132,0,0,0,.707-.321q4.086-4.05,8.144-8.128c.1-.1.183-.213.386-.45Zm30.431-8.8c.168.208.218.284.282.348q4.152,4.155,8.319,8.3a1.222,1.222,0,0,0,.789.266c4.036.016,8.073.011,12.109.01.164,0,.329-.018.493-.027l.013-.093Zm-16.939,37.4H44.7V40.387H19.284ZM33.1,60.5c0-.8.028-1.536-.009-2.265a1.032,1.032,0,0,0-1.009-.979,1.012,1.012,0,0,0-1.137.824c-.062.8-.016,1.6-.016,2.42ZM19.735,37.216c.17,1.153.17,1.153,1.212,1.153H21.96c.984,0,1.109-.123,1.156-1.153Zm21.009,0c.325.418.052,1.1.754,1.14s1.43.023,2.144,0a.55.55,0,0,0,.392-.258,6.272,6.272,0,0,0,.3-.879Z"/><path d="M48.592,62.516a1.411,1.411,0,0,1-.707-1.391c.023-2.585,0-5.171.018-7.756a.693.693,0,0,0-.437-.728,3.048,3.048,0,0,1-1.611-3.351,3.107,3.107,0,0,1,2.734-2.455,6.651,6.651,0,0,1,.774-.031q4.236,0,8.473,0h.74c.218-1.734.431-3.405.639-5.076q.67-5.383,1.341-10.766c.09-.715.539-1.1,1.14-1.023a1.029,1.029,0,0,1,.834,1.287q-1.03,8.221-2.061,16.443a6.223,6.223,0,0,0-.035.773c0,4.216-.011,8.431.009,12.647a1.53,1.53,0,0,1-.63,1.429H59.1a1.486,1.486,0,0,1-.635-1.423c.036-1.263.011-2.527.011-3.805h-8.58c0,1.312-.022,2.579.009,3.846a1.376,1.376,0,0,1-.713,1.382ZM58.44,48.791H55.51c-2.184,0-4.369-.007-6.553,0a1.118,1.118,0,0,0-1.184,1.084A1.152,1.152,0,0,0,48.9,51.036c.138.013.278.008.417.008q4.26,0,8.519,0c.192,0,.385-.019.606-.031Zm-.022,6.424V53.042H49.932v2.173Z"/><path d="M1.442,30.532a3.577,3.577,0,0,1,1.025-.575c.512-.092.892.34.975.982.254,1.969.492,3.94.739,5.909.4,3.172.8,6.342,1.177,9.517.052.447.276.439.591.439,2.922,0,5.843-.008,8.764,0a4.917,4.917,0,0,1,1.294.15,3,3,0,0,1,2.164,2.58,2.939,2.939,0,0,1-1.594,3.074.788.788,0,0,0-.479.824c.016,2.563,0,5.126.018,7.689a1.415,1.415,0,0,1-.708,1.39h-.6a1.372,1.372,0,0,1-.712-1.382c.031-1.281.009-2.564.009-3.837H5.527c0,1.3-.024,2.549.011,3.8A1.49,1.49,0,0,1,4.9,62.516H4.188a1.527,1.527,0,0,1-.631-1.428c.02-4.235.012-8.47.008-12.7a6.777,6.777,0,0,0-.054-.83Q2.713,41.076,1.9,34.6c-.136-1.08-.307-2.155-.462-3.232ZM5.56,51.044H8.784c2.026,0,4.051,0,6.077,0,.781,0,1.258-.359,1.355-.98A1.13,1.13,0,0,0,14.987,48.8q-4.527-.012-9.055,0c-.114,0-.228.019-.372.032Zm0,4.165h8.517V53.051H5.556Z"/></svg>