<svg id="a85901cf-8759-41ac-ab63-ff4dc18285f0" data-name="Layer 1" xmlns="http://www.w3.org/2000/svg" xmlns:xlink="http://www.w3.org/1999/xlink" viewBox="0 0 31.466 43.192"><defs><style>.aac15499-0200-4301-b369-fd8bf791267e{fill:none;}.eb4807cd-b5fb-401c-9318-016c57efaaae{fill:#fff;}.bd0f8205-42c1-4ae3-8e5b-d462e9a6dd13{clip-path:url(#e628d579-229b-4d24-8c1c-5caad3b8e8a4);}</style><clipPath id="e628d579-229b-4d24-8c1c-5caad3b8e8a4"><rect class="aac15499-0200-4301-b369-fd8bf791267e" x="3.461" y="12.339" width="4.106" height="4.106"/></clipPath></defs><title>icon2</title><path d="M15.615.237A14.951,14.951,0,0,0,.67,15.182,14.311,14.311,0,0,0,2.92,23L14.6,42.127a1.213,1.213,0,0,0,.857.589,1.263,1.263,0,0,0,1.285-.589L28.472,22.843A14.907,14.907,0,0,0,15.615.237Zm0,22.391a7.446,7.446,0,1,1,7.446-7.446A7.429,7.429,0,0,1,15.615,22.628Z"/><circle class="eb4807cd-b5fb-401c-9318-016c57efaaae" cx="15.642" cy="15.182" r="12.749"/><path d="M11.383,12.021v1.928h-.307v-.821h-.948v.821h-.31V12.021h.31v.813h.948v-.813Z"/><path d="M12.3,12.988a.947.947,0,0,1,.076-.379,1.052,1.052,0,0,1,.212-.315.99.99,0,0,1,.314-.216.972.972,0,0,1,.763,0,1,1,0,0,1,.315.216,1.043,1.043,0,0,1,.215.315.932.932,0,0,1,.078.379.951.951,0,0,1-.078.383,1,1,0,0,1-.215.313.988.988,0,0,1-1.392,0,1,1,0,0,1-.212-.313A.965.965,0,0,1,12.3,12.988Zm.317,0a.7.7,0,0,0,.052.267.689.689,0,0,0,.144.219.675.675,0,0,0,.215.147.66.66,0,0,0,.265.053.637.637,0,0,0,.258-.053.647.647,0,0,0,.211-.147.7.7,0,0,0,.141-.219.68.68,0,0,0,.052-.267.688.688,0,0,0-.053-.27.726.726,0,0,0-.143-.22.646.646,0,0,0-.212-.149.659.659,0,0,0-.738.149.663.663,0,0,0-.141.221A.708.708,0,0,0,12.617,12.988Z"/><path d="M16.2,12.413a1.538,1.538,0,0,0-.22-.091.7.7,0,0,0-.223-.039.359.359,0,0,0-.226.064.207.207,0,0,0-.084.175.2.2,0,0,0,.057.139.516.516,0,0,0,.149.1c.06.029.124.057.192.083a1.749,1.749,0,0,1,.173.076.7.7,0,0,1,.155.107.46.46,0,0,1,.109.158.608.608,0,0,1,.039.232.522.522,0,0,1-.294.476.738.738,0,0,1-.347.075,1.038,1.038,0,0,1-.237-.027,1.188,1.188,0,0,1-.218-.073,1.383,1.383,0,0,1-.191-.1l.138-.241a.993.993,0,0,0,.145.087,1.058,1.058,0,0,0,.17.064.66.66,0,0,0,.164.023.511.511,0,0,0,.163-.027.323.323,0,0,0,.135-.089A.237.237,0,0,0,16,13.422a.219.219,0,0,0-.047-.14.419.419,0,0,0-.123-.1,1.226,1.226,0,0,0-.167-.078c-.06-.023-.121-.049-.183-.077a.878.878,0,0,1-.173-.105.479.479,0,0,1-.131-.152.446.446,0,0,1-.051-.223.5.5,0,0,1,.075-.275.519.519,0,0,1,.205-.185.692.692,0,0,1,.3-.075,1.106,1.106,0,0,1,.348.049,1.238,1.238,0,0,1,.256.118Z"/><path d="M17.086,12.021h1.29v.3h-.5v1.631h-.307V12.318h-.485Z"/><path d="M19.271,12.021H20.55v.3h-.969v.514h.863v.3h-.863v.525h1.006v.3H19.271Z"/><path d="M21.517,12.021h.31v1.632h.948v.3H21.517Z"/><path d="M9.68,15.067h1.29v.3h-.5V17h-.307V15.364H9.68Z"/><path d="M11.672,16.034a.931.931,0,0,1,.077-.379,1.031,1.031,0,0,1,.211-.315,1,1,0,0,1,.314-.216.951.951,0,0,1,.383-.078.94.94,0,0,1,.38.078,1,1,0,0,1,.315.216,1.043,1.043,0,0,1,.215.315.932.932,0,0,1,.078.379.951.951,0,0,1-.078.383,1.015,1.015,0,0,1-.215.314.988.988,0,0,1-.315.21,1,1,0,0,1-.764,0,1,1,0,0,1-.313-.209.976.976,0,0,1-.211-.313A.949.949,0,0,1,11.672,16.034Zm.318,0a.679.679,0,0,0,.2.486.659.659,0,0,0,.479.2.646.646,0,0,0,.469-.2.719.719,0,0,0,.142-.219.7.7,0,0,0,.051-.267.671.671,0,0,0-.053-.27.726.726,0,0,0-.143-.22.619.619,0,0,0-.212-.148.674.674,0,0,0-.524,0,.643.643,0,0,0-.213.148.665.665,0,0,0-.142.221A.711.711,0,0,0,11.99,16.034Z"/><path d="M15.1,15.067a.989.989,0,0,1,.291.041.622.622,0,0,1,.225.121.559.559,0,0,1,.145.194.648.648,0,0,1,.051.264.783.783,0,0,1-.034.228.551.551,0,0,1-.113.205.568.568,0,0,1-.205.148.771.771,0,0,1-.315.057h-.278V17h-.31V15.067Zm.042.962A.379.379,0,0,0,15.316,16a.288.288,0,0,0,.108-.083.33.33,0,0,0,.055-.107A.358.358,0,0,0,15.5,15.7a.419.419,0,0,0-.016-.105.34.34,0,0,0-.055-.109.3.3,0,0,0-.1-.086.36.36,0,0,0-.167-.034h-.286v.665Zm.334.182.493.784h-.358l-.5-.776Z"/><path d="M16.665,16.034a.931.931,0,0,1,.077-.379,1.031,1.031,0,0,1,.211-.315.99.99,0,0,1,.314-.216.972.972,0,0,1,.763,0,1,1,0,0,1,.315.216,1.043,1.043,0,0,1,.215.315.932.932,0,0,1,.078.379.951.951,0,0,1-.078.383,1.015,1.015,0,0,1-.215.314.988.988,0,0,1-.315.21,1,1,0,0,1-.764,0,.993.993,0,0,1-.313-.209.976.976,0,0,1-.211-.313A.949.949,0,0,1,16.665,16.034Zm.318,0a.679.679,0,0,0,.2.486.659.659,0,0,0,.479.2.646.646,0,0,0,.469-.2.719.719,0,0,0,.142-.219.7.7,0,0,0,.051-.267.671.671,0,0,0-.053-.27.726.726,0,0,0-.143-.22.629.629,0,0,0-.212-.148.674.674,0,0,0-.524,0,.643.643,0,0,0-.213.148.665.665,0,0,0-.142.221A.711.711,0,0,0,16.983,16.034Z"/><path d="M20.079,15.067a.8.8,0,0,1,.465.119.417.417,0,0,1,.171.366.494.494,0,0,1-.077.279.505.505,0,0,1-.211.178.794.794,0,0,1-.314.067l-.047-.164a1.07,1.07,0,0,1,.381.068.633.633,0,0,1,.264.182.431.431,0,0,1,.1.28.549.549,0,0,1-.054.255.469.469,0,0,1-.147.171.635.635,0,0,1-.209.1.977.977,0,0,1-.244.03h-.6V15.067Zm.048.821a.247.247,0,0,0,.205-.081.293.293,0,0,0,.065-.189.226.226,0,0,0-.082-.193.364.364,0,0,0-.223-.061h-.23v.524Zm.013.821a.548.548,0,0,0,.177-.027.272.272,0,0,0,.127-.088.231.231,0,0,0,.048-.15.211.211,0,0,0-.055-.156.32.32,0,0,0-.141-.079.647.647,0,0,0-.177-.024h-.257v.524Z"/><path d="M21.47,17l.852-2.007h.019L23.194,17h-.355l-.6-1.525.22-.149L21.771,17Zm.535-.717h.659l.106.264h-.858Z"/><path d="M24.283,16.37l-.713-1.3h.379l.543,1.038-.093.006.535-1.044h.379l-.723,1.3V17h-.307Z"/><path d="M25.851,16.034a.947.947,0,0,1,.076-.379,1.052,1.052,0,0,1,.212-.315.99.99,0,0,1,.314-.216.972.972,0,0,1,.763,0,1,1,0,0,1,.315.216,1.043,1.043,0,0,1,.215.315.932.932,0,0,1,.078.379.951.951,0,0,1-.078.383,1.015,1.015,0,0,1-.215.314.988.988,0,0,1-.315.21,1,1,0,0,1-.764,0,.981.981,0,0,1-.525-.522A.965.965,0,0,1,25.851,16.034Zm.317,0a.7.7,0,0,0,.052.267.706.706,0,0,0,.144.219.675.675,0,0,0,.215.147.664.664,0,0,0,.265.053.637.637,0,0,0,.258-.053.647.647,0,0,0,.211-.147.7.7,0,0,0,.141-.219.68.68,0,0,0,.052-.267.688.688,0,0,0-.053-.27.726.726,0,0,0-.143-.22A.629.629,0,0,0,27.1,15.4a.662.662,0,0,0-.738.148.679.679,0,0,0-.141.221A.711.711,0,0,0,26.168,16.034Z"/><g class="bd0f8205-42c1-4ae3-8e5b-d462e9a6dd13"><path d="M3.461,15.837V14.2a.2.2,0,0,0,.006-.023.676.676,0,0,1,.224-.413c.449-.407.9-.816,1.348-1.222a.674.674,0,0,1,.944,0c.447.405.892.811,1.34,1.215a.692.692,0,0,1,.237.538c0,.472,0,.944,0,1.416a.816.816,0,0,1-.008.131.684.684,0,0,1-.432.562,1.218,1.218,0,0,1-.16.044H4.069a.2.2,0,0,0-.023-.007.677.677,0,0,1-.562-.5C3.474,15.9,3.468,15.869,3.461,15.837Zm2.037.215H6.846a.27.27,0,0,0,.282-.275c0-.5,0-.992,0-1.488a.31.31,0,0,0-.106-.234c-.442-.4-.888-.8-1.328-1.209a.288.288,0,0,0-.385,0q-.2.181-.4.365c-.314.285-.628.571-.943.854a.235.235,0,0,0-.085.14.717.717,0,0,0-.008.1v1.444a.277.277,0,0,0,.3.3Z"/><path class="eb4807cd-b5fb-401c-9318-016c57efaaae" d="M6.959,16.445a1.218,1.218,0,0,0,.16-.044.684.684,0,0,0,.432-.562.816.816,0,0,0,.008-.131c0-.472,0-.944,0-1.416a.692.692,0,0,0-.237-.538c-.448-.4-.893-.81-1.34-1.215a.674.674,0,0,0-.944,0c-.45.406-.9.815-1.348,1.222a.676.676,0,0,0-.224.413.2.2,0,0,1-.006.023V12.339H7.566v4.106Z"/><path class="eb4807cd-b5fb-401c-9318-016c57efaaae" d="M3.461,15.837c.007.032.013.064.023.1a.677.677,0,0,0,.562.5.2.2,0,0,1,.023.007H3.461Z"/><path class="eb4807cd-b5fb-401c-9318-016c57efaaae" d="M5.5,16.052H4.169a.277.277,0,0,1-.3-.3V14.309a.717.717,0,0,1,.008-.1.235.235,0,0,1,.085-.14c.315-.283.629-.569.943-.854q.2-.183.4-.365a.288.288,0,0,1,.385,0c.44.406.886.8,1.328,1.209a.31.31,0,0,1,.106.234c0,.5,0,.992,0,1.488a.27.27,0,0,1-.282.275Z"/></g></svg>