<?xml version="1.0" encoding="utf-8"?>
<!-- Generator: Adobe Illustrator 24.0.3, SVG Export Plug-In . SVG Version: 6.00 Build 0)  -->
<svg version="1.1" id="f2f61325-1707-4e39-98f8-3ef42d64826e"
	 xmlns="http://www.w3.org/2000/svg" xmlns:xlink="http://www.w3.org/1999/xlink" x="0px" y="0px" viewBox="0 0 882.6 200.5"
	 style="enable-background:new 0 0 882.6 200.5;" xml:space="preserve">
<style type="text/css">
	.st0{clip-path:url(#SVGID_2_);}
</style>
<title>01 - HOSTEL TOROBAYO - LOGO - 1</title>
<path d="M288.9,10.6v69h-11V50.3h-34v29.4h-11.1v-69h11.1v29.1h34V10.6H288.9z"/>
<path d="M321.7,45.3c0-4.7,0.9-9.3,2.8-13.6c1.8-4.2,4.4-8,7.6-11.3c3.2-3.3,7-5.9,11.2-7.7c8.7-3.7,18.6-3.7,27.3,0
	c4.2,1.8,8.1,4.5,11.3,7.7c3.2,3.3,5.8,7.1,7.7,11.3c1.9,4.3,2.8,8.9,2.8,13.6c0,4.7-0.9,9.4-2.8,13.7c-1.8,4.2-4.4,8-7.7,11.2
	c-3.2,3.2-7.1,5.8-11.3,7.5c-8.8,3.6-18.6,3.6-27.4,0c-4.2-1.8-8-4.3-11.2-7.5c-3.2-3.2-5.8-7-7.6-11.2
	C322.6,54.7,321.6,50,321.7,45.3z M333.1,45.3c0,3.3,0.6,6.5,1.8,9.6c2.4,5.9,7,10.6,12.9,13.1c3,1.3,6.2,1.9,9.5,1.9
	c3.2,0,6.3-0.6,9.2-1.9c2.8-1.2,5.4-3,7.5-5.3c2.2-2.3,3.9-4.9,5.1-7.8c1.2-3,1.9-6.3,1.9-9.6c0-3.3-0.6-6.6-1.9-9.7
	c-1.2-2.9-3-5.6-5.1-7.9c-2.1-2.3-4.7-4.1-7.6-5.3c-9-3.9-19.6-1.8-26.4,5.3c-2.2,2.3-3.9,5-5.1,7.9C333.6,38.7,333,42,333.1,45.3
	L333.1,45.3z"/>
<path d="M461.3,24.7c-2.5-1.3-5.2-2.4-7.9-3.3c-2.6-0.9-5.3-1.3-8-1.4c-3.4,0-6.1,0.8-8.1,2.3c-2,1.5-3.1,3.8-3,6.3
	c0,1.9,0.7,3.7,2,5c1.5,1.5,3.3,2.8,5.3,3.7c2.2,1,4.5,2,6.9,3c2.1,0.8,4.2,1.7,6.2,2.7c2,1,3.9,2.3,5.5,3.8c1.7,1.6,3,3.5,3.9,5.6
	c1,2.6,1.5,5.5,1.4,8.3c0,3.5-0.9,6.9-2.7,9.9c-1.9,3.1-4.6,5.6-7.8,7.2c-3.9,1.9-8.1,2.8-12.4,2.7c-2.9,0-5.7-0.3-8.5-0.9
	c-2.7-0.6-5.3-1.5-7.8-2.6c-2.4-1.1-4.7-2.3-6.8-3.7l4.9-8.6c1.6,1.2,3.4,2.3,5.2,3.1c1.9,0.9,4,1.7,6.1,2.3
	c1.9,0.5,3.9,0.8,5.9,0.9c2,0,4-0.3,5.8-1c1.9-0.6,3.5-1.7,4.8-3.2c1.4-1.6,2-3.7,1.9-5.8c0-1.8-0.5-3.6-1.7-5
	c-1.2-1.5-2.7-2.7-4.4-3.7c-1.9-1.1-3.9-2-6-2.8c-2.1-0.8-4.3-1.7-6.5-2.8c-2.2-1-4.3-2.3-6.2-3.7c-1.9-1.5-3.5-3.3-4.7-5.5
	c-1.3-2.5-1.9-5.2-1.8-8c-0.1-3.5,0.8-6.9,2.7-9.9c1.8-2.8,4.4-5.1,7.4-6.6c3.4-1.7,7.1-2.6,10.9-2.7c4.2-0.1,8.4,0.5,12.5,1.8
	c3.2,1.1,6.3,2.5,9.2,4.2L461.3,24.7z"/>
<path d="M493,10.6h46.2v10.6h-17.8v58.4h-11V21.3H493V10.6z"/>
<path d="M571.3,10.6h45.8v10.6h-34.7v18.4h30.9v10.6h-30.9v18.8h36v10.6h-47.1V10.6z"/>
<path d="M651.7,10.6h11.1v58.4h34v10.6h-45.1V10.6z"/>
<path d="M227.9,119.7h46.2v10.6h-17.8v58.4h-11v-58.4h-17.4V119.7z"/>
<path d="M299.2,154.3c0-4.7,0.9-9.3,2.8-13.6c1.8-4.2,4.4-8,7.6-11.3c3.2-3.3,7-5.9,11.2-7.7c8.7-3.7,18.6-3.7,27.3,0
	c4.2,1.8,8.1,4.5,11.3,7.7c3.2,3.3,5.8,7.1,7.7,11.3c1.9,4.3,2.8,8.9,2.8,13.6c0,4.7-0.9,9.4-2.8,13.7c-1.8,4.2-4.4,8-7.7,11.2
	c-3.2,3.2-7.1,5.8-11.3,7.5c-8.8,3.6-18.6,3.6-27.4,0c-4.2-1.8-8-4.3-11.2-7.5c-3.2-3.2-5.8-7-7.6-11.2
	C300.1,163.8,299.2,159.1,299.2,154.3z M310.6,154.3c0,3.3,0.6,6.5,1.8,9.6c2.4,5.9,7,10.6,12.9,13.1c3,1.3,6.2,1.9,9.5,1.9
	c3.2,0,6.3-0.6,9.2-1.9c2.8-1.2,5.4-3,7.5-5.3c2.2-2.3,3.9-4.9,5.1-7.8c1.2-3,1.9-6.3,1.9-9.6c0-3.3-0.6-6.6-1.9-9.7
	c-1.2-2.9-3-5.6-5.1-7.9c-2.1-2.3-4.7-4.1-7.6-5.3c-9-3.9-19.6-1.8-26.4,5.3c-2.2,2.3-3.9,5-5.1,7.9
	C311.2,147.8,310.6,151,310.6,154.3L310.6,154.3z"/>
<path d="M422,119.7c3.5,0,7,0.5,10.4,1.5c3,0.9,5.7,2.3,8.1,4.3c2.2,1.9,4,4.3,5.2,7c1.3,3,1.9,6.2,1.8,9.4c0,2.8-0.4,5.5-1.2,8.2
	c-0.8,2.7-2.2,5.2-4,7.4c-2,2.3-4.5,4.1-7.4,5.3c-3.6,1.5-7.4,2.2-11.3,2h-10v24h-11.1v-69.1H422z M423.5,154.1
	c2.1,0.1,4.2-0.3,6.2-1.2c1.5-0.7,2.8-1.7,3.8-3c0.9-1.2,1.6-2.5,2-3.8c0.4-1.2,0.6-2.5,0.6-3.8c0-1.3-0.2-2.5-0.6-3.7
	c-0.4-1.4-1.1-2.7-1.9-3.9c-1-1.3-2.3-2.4-3.7-3.1c-1.9-0.9-3.9-1.3-6-1.2h-10.2v23.8L423.5,154.1z M435.5,160.7l17.6,28.1h-12.8
	l-18-27.8L435.5,160.7z"/>
<path d="M478,154.3c0-4.7,0.9-9.3,2.8-13.6c1.8-4.2,4.4-8,7.6-11.3c3.2-3.3,7-5.9,11.2-7.7c8.7-3.7,18.6-3.7,27.3,0
	c4.2,1.8,8.1,4.5,11.3,7.7c3.2,3.3,5.8,7.1,7.7,11.3c1.9,4.3,2.8,8.9,2.8,13.6c0,4.7-0.9,9.4-2.8,13.7c-1.8,4.2-4.4,8-7.7,11.2
	c-3.2,3.2-7.1,5.8-11.3,7.5c-8.8,3.6-18.6,3.6-27.4,0c-4.2-1.8-8-4.3-11.2-7.5c-3.2-3.2-5.8-7-7.6-11.2
	C478.9,163.8,477.9,159.1,478,154.3z M489.4,154.3c0,3.3,0.6,6.5,1.9,9.6c2.4,5.9,7,10.6,12.9,13.1c3,1.3,6.2,1.9,9.5,1.9
	c3.2,0,6.3-0.6,9.2-1.9c2.8-1.2,5.4-3,7.5-5.3c2.2-2.3,3.9-4.9,5.1-7.8c1.2-3,1.9-6.3,1.8-9.6c0-3.3-0.6-6.6-1.9-9.7
	c-1.2-2.9-3-5.6-5.1-7.9c-2.1-2.3-4.7-4.1-7.6-5.3c-9-3.9-19.6-1.8-26.4,5.3c-2.2,2.3-3.9,5-5.1,7.9
	C489.9,147.8,489.3,151,489.4,154.3L489.4,154.3z"/>
<path d="M600.2,119.7c7,0,12.6,1.4,16.6,4.3c4.1,2.8,6.1,7.2,6.1,13.1c0.1,3.5-0.9,7-2.8,10c-1.9,2.8-4.5,5-7.5,6.4
	c-3.5,1.6-7.4,2.4-11.2,2.4l-1.7-5.9c4.7,0,9.3,0.8,13.7,2.4c3.7,1.3,6.9,3.6,9.4,6.5c2.3,2.8,3.5,6.4,3.5,10
	c0.1,3.2-0.6,6.3-1.9,9.2c-1.2,2.4-3,4.5-5.3,6.1c-2.3,1.6-4.8,2.8-7.5,3.5c-2.8,0.7-5.8,1.1-8.7,1.1h-21.5v-69.1H600.2z
	 M601.9,149.1c3.4,0,5.8-1,7.3-2.9c1.5-1.9,2.4-4.3,2.3-6.8c0-3.2-1-5.5-2.9-6.9c-2.4-1.6-5.1-2.3-8-2.2h-8.3v18.8L601.9,149.1z
	 M602.4,178.5c2.2,0,4.3-0.3,6.4-1c1.8-0.6,3.4-1.7,4.6-3.1c1.2-1.5,1.8-3.4,1.7-5.4c0.1-2.1-0.6-4.1-2-5.6c-1.4-1.4-3.1-2.3-5-2.8
	c-2.1-0.6-4.2-0.9-6.4-0.9h-9.2v18.8L602.4,178.5z"/>
<path d="M650,188.7l30.5-71.9h0.7l30.5,71.9H699l-21.4-54.6l7.9-5.3l-24.7,59.9H650z M669.2,163h23.6l3.8,9.5h-30.7L669.2,163z"/>
<path d="M750.7,166.4l-25.5-46.7h13.6l19.4,37.2l-3.3,0.2l19.2-37.4h13.6l-25.9,46.7v22.4h-11L750.7,166.4z"/>
<path d="M806.9,154.3c0-4.7,0.9-9.3,2.8-13.6c1.8-4.2,4.4-8,7.6-11.3c3.2-3.3,7-5.9,11.2-7.7c8.7-3.7,18.6-3.7,27.3,0
	c4.2,1.8,8.1,4.5,11.3,7.7c3.2,3.3,5.8,7.1,7.7,11.3c1.9,4.3,2.8,8.9,2.8,13.6c0,4.7-0.9,9.4-2.8,13.7c-1.8,4.2-4.4,8-7.7,11.2
	c-3.2,3.2-7.1,5.8-11.3,7.5c-8.8,3.6-18.6,3.6-27.4,0c-4.2-1.8-8-4.3-11.2-7.5c-3.2-3.2-5.8-7-7.6-11.2
	C807.8,163.8,806.8,159.1,806.9,154.3z M818.3,154.3c0,3.3,0.6,6.5,1.8,9.6c2.4,5.9,7,10.6,12.9,13.1c3,1.3,6.2,1.9,9.5,1.9
	c3.2,0,6.3-0.6,9.2-1.9c2.8-1.2,5.4-3,7.5-5.3c2.2-2.3,3.9-4.9,5.1-7.8c1.2-3,1.9-6.3,1.8-9.6c0-3.3-0.6-6.6-1.9-9.7
	c-1.2-2.9-3-5.6-5.1-7.9c-2.1-2.3-4.7-4.1-7.6-5.3c-9-3.9-19.6-1.8-26.4,5.3c-2.2,2.3-3.9,5-5.1,7.9
	C818.8,147.8,818.2,151,818.3,154.3L818.3,154.3z"/>
<g>
	<defs>
		<rect id="SVGID_1_" x="5.2" y="22" width="147" height="147"/>
	</defs>
	<clipPath id="SVGID_2_">
		<use xlink:href="#SVGID_1_"  style="overflow:visible;"/>
	</clipPath>
	<g class="st0">
		<path d="M5.2,147.3V88.5c0.1-0.3,0.2-0.5,0.2-0.8c0.8-5.7,3.6-11,8-14.8c16.1-14.6,32.2-29.2,48.3-43.8
			c10.2-9.2,23.6-9.2,33.8,0.1c16,14.5,31.9,29,48,43.5c5.6,4.8,8.7,11.9,8.5,19.3c0,16.9,0,33.8,0,50.7c0,1.6-0.1,3.1-0.3,4.7
			c-1.6,9.4-6.4,16.4-15.4,20.1c-1.9,0.6-3.8,1.2-5.8,1.6H27c-0.3-0.1-0.5-0.2-0.8-0.2c-10.4-1.9-17.1-8-20.1-18.1
			C5.7,149.6,5.5,148.4,5.2,147.3z M78.1,155c16.1,0,32.2,0,48.3,0c5.8,0,10.1-4.1,10.1-9.8c0-17.8,0-35.5,0-53.3
			c0-3.2-1.4-6.3-3.8-8.4C116.9,69,100.9,54.7,85.1,40.2c-3.9-3.5-9.9-3.5-13.8,0c-4.8,4.3-9.6,8.7-14.4,13.1
			C45.7,63.5,34.4,73.6,23.2,83.8c-1.6,1.2-2.7,3-3,5c-0.2,1.2-0.3,2.5-0.3,3.7c0,17.2,0,34.5,0,51.7c0,6.6,4.1,10.7,10.7,10.7
			C46.4,155,62.3,155,78.1,155z"/>
	</g>
</g>
</svg>
